<?xml version="1.0" standalone="no"?>
<!DOCTYPE svg PUBLIC "-//W3C//DTD SVG 20010904//EN"
 "http://www.w3.org/TR/2001/REC-SVG-20010904/DTD/svg10.dtd">
<svg version="1.0" xmlns="http://www.w3.org/2000/svg"
 width="325.000000pt" height="325.000000pt" viewBox="0 0 325.000000 325.000000"
 preserveAspectRatio="xMidYMid meet">
<metadata>
Created by potrace 1.14, written by Peter Selinger 2001-2017
</metadata>
<g transform="translate(0.000000,325.000000) scale(0.100000,-0.100000)"
fill="#000000" stroke="none">
<path d="M19 2477 c0 -1 -3 -269 -6 -595 -4 -485 -2 -593 9 -597 7 -2 320 -6
695 -8 376 -2 686 -6 690 -11 4 -4 8 -38 9 -76 5 -162 92 -292 244 -363 l65
-31 753 -1 c516 -1 755 2 760 9 7 13 9 755 2 757 -21 5 -1034 3 -1041 -2 -6
-3 -8 -74 -7 -165 l3 -159 249 -2 c136 -1 250 -4 253 -7 10 -10 11 -86 2 -92
-16 -10 -721 -6 -731 4 -14 14 -11 491 3 508 10 12 116 14 639 14 494 0 629 3
632 12 6 22 2 307 -5 314 -11 11 -1457 7 -1504 -4 l-42 -10 25 37 c45 69 52
194 14 278 -38 86 -133 154 -244 173 -42 7 -1464 24 -1467 17z m1191 -357 c26
-14 26 -45 -2 -64 -19 -14 -64 -16 -290 -16 -207 0 -268 -3 -269 -12 -7 -95
-5 -310 4 -315 6 -4 172 -8 369 -9 196 -1 361 -5 367 -9 26 -15 32 -44 14 -62
-16 -16 -42 -18 -293 -16 -151 1 -344 2 -427 2 l-153 1 0 253 c0 140 2 256 5
258 10 11 654 0 675 -11z"/>
</g>
</svg>
